ffmpeg started on 2025-06-19 at 10:05:49
Report written to "D:\Convert\FFMetrics\reports\ssim_report-6.txt"
Log level: 32
Command line:
ffmpeg -hide_banner -nostdin -i "G:\\\xc0\xed\xe8\xec\xe5\\[\xd2\xee\xef-4]\\RErideD - \xc4\xe5\xf0\xf0\xe8\xe4\xe0, \xef\xee\xea\xee\xf0\xe8\xe2\xf8\xe8\xe9 \xe2\xf0\xe5\xec\xff\\RErideD_Koku_Koe_no_Derrida_[02]_[AniLibria_TV]_[WEBRip_720p]_HEVC.mkv" -i "G:\\\xc0\xed\xe8\xec\xe5\\[\xd2\xee\xef-4]\\RErideD - \xc4\xe5\xf0\xf0\xe8\xe4\xe0, \xef\xee\xea\xee\xf0\xe8\xe2\xf8\xe8\xe9 \xe2\xf0\xe5\xec\xff\\RErideD_Koku_Koe_no_Derrida_[02]_[AniLibria_TV]_[WEBRip_720p].mkv" -lavfi "[0:v]settb=AVTB,setpts=PTS-STARTPTS,format=pix_fmts=yuv420p10,fps=24000/1001,scale=1280:720:flags=bicubic[main];[1:v]settb=AVTB,setpts=PTS-STARTPTS,format=pix_fmts=yuv420p,fps=24000/1001,scale=1280:720:flags=bicubic[ref];[main][ref]ssim=eof_action=endall:stats_file='D\\:/Convert/FFMetrics/logs/ssim_logfile-6.txt'" -f null -
Input #0, matroska,webm, from 'G:\Аниме\[Топ-4]\RErideD - Деррида, покоривший время\RErideD_Koku_Koe_no_Derrida_[02]_[AniLibria_TV]_[WEBRip_720p]_HEVC.mkv':
  Metadata:
    ENCODER         : Lavf61.7.100
  Duration: 00:23:40.09, start: -0.021000, bitrate: 668 kb/s
  Stream #0:0(jpn): Video: hevc (Main 10), yuv420p10le(tv, bt709, progressive), 1280x720 [SAR 1:1 DAR 16:9], 23.98 fps, 23.98 tbr, 1k tbn
      Metadata:
        ENCODER         : Lavc61.19.100 libx265
        BPS             : 469717
        DURATION        : 00:23:40.002708333
        NUMBER_OF_FRAMES: 34046
        NUMBER_OF_BYTES : 83374996
        _STATISTICS_WRITING_APP: mkvpropedit v66.0.0 ('Josie') 64-bit
        _STATISTICS_WRITING_DATE_UTC: 2025-06-17 14:46:22
        _STATISTICS_TAGS: BPS DURATION NUMBER_OF_FRAMES NUMBER_OF_BYTES
  Stream #0:1(rus): Audio: aac (LC), 48000 Hz, stereo, fltp (default) (forced)
      Metadata:
        title           : AniLibria.TV
        ENCODER         : Lavc61.19.100 aac
        BPS             : 194723
        DURATION        : 00:23:40.032000000
        NUMBER_OF_FRAMES: 66565
        NUMBER_OF_BYTES : 34564140
        _STATISTICS_WRITING_APP: mkvpropedit v66.0.0 ('Josie') 64-bit
        _STATISTICS_WRITING_DATE_UTC: 2025-06-17 14:46:22
        _STATISTICS_TAGS: BPS DURATION NUMBER_OF_FRAMES NUMBER_OF_BYTES
  Stream #0:2(rus): Subtitle: ass (ssa)
      Metadata:
        title           : Полные субтитры
        BPS             : 106
        DURATION        : 00:21:56.560000000
        NUMBER_OF_FRAMES: 268
        NUMBER_OF_BYTES : 17537
        _STATISTICS_WRITING_APP: mkvpropedit v66.0.0 ('Josie') 64-bit
        _STATISTICS_WRITING_DATE_UTC: 2025-06-17 14:46:22
        _STATISTICS_TAGS: BPS DURATION NUMBER_OF_FRAMES NUMBER_OF_BYTES
Input #1, matroska,webm, from 'G:\Аниме\[Топ-4]\RErideD - Деррида, покоривший время\RErideD_Koku_Koe_no_Derrida_[02]_[AniLibria_TV]_[WEBRip_720p].mkv':
  Metadata:
    encoder         : libebml v1.4.2 + libmatroska v1.6.4
    creation_time   : 2024-12-15T11:01:38.000000Z
  Duration: 00:23:40.09, start: 0.000000, bitrate: 1869 kb/s
  Stream #1:0(jpn): Video: h264 (High), yuv420p(progressive), 1280x720 [SAR 1:1 DAR 16:9], 23.98 fps, 23.98 tbr, 1k tbn
      Metadata:
        BPS             : 1669861
        DURATION        : 00:23:40.004000000
        NUMBER_OF_FRAMES: 34046
        NUMBER_OF_BYTES : 296401229
        _STATISTICS_WRITING_APP: mkvmerge v66.0.0 ('Josie') 64-bit
        _STATISTICS_WRITING_DATE_UTC: 2024-12-15 11:01:38
        _STATISTICS_TAGS: BPS DURATION NUMBER_OF_FRAMES NUMBER_OF_BYTES
  Stream #1:1(rus): Audio: aac (LC), 48000 Hz, stereo, fltp (default) (forced)
      Metadata:
        title           : AniLibria.TV
        BPS             : 195570
        DURATION        : 00:23:40.031000000
        NUMBER_OF_FRAMES: 66564
        NUMBER_OF_BYTES : 34714610
        _STATISTICS_WRITING_APP: mkvmerge v66.0.0 ('Josie') 64-bit
        _STATISTICS_WRITING_DATE_UTC: 2024-12-15 11:01:38
        _STATISTICS_TAGS: BPS DURATION NUMBER_OF_FRAMES NUMBER_OF_BYTES
  Stream #1:2(rus): Subtitle: ass (ssa)
      Metadata:
        title           : Полные субтитры
        BPS             : 106
        DURATION        : 00:21:56.560000000
        NUMBER_OF_FRAMES: 268
        NUMBER_OF_BYTES : 17537
        _STATISTICS_WRITING_APP: mkvmerge v66.0.0 ('Josie') 64-bit
        _STATISTICS_WRITING_DATE_UTC: 2024-12-15 11:01:38
        _STATISTICS_TAGS: BPS DURATION NUMBER_OF_FRAMES NUMBER_OF_BYTES
  Stream #1:3: Attachment: ttf
      Metadata:
        filename        : OpenSans-Semibold.ttf
        mimetype        : application/x-truetype-font
Stream mapping:
  Stream #0:0 (hevc) -> settb:default
  Stream #1:0 (h264) -> settb:default
  ssim:default -> Stream #0:0 (wrapped_avframe)
  Stream #0:1 -> #0:1 (aac (native) -> pcm_s16le (native))
[swscaler @ 000001f6492db040] No accelerated colorspace conversion found from yuv420p to bgr48le.
[swscaler @ 000001f6494626c0] No accelerated colorspace conversion found from yuv420p to bgr48le.
[swscaler @ 000001f649573d40] No accelerated colorspace conversion found from yuv420p to bgr48le.
[swscaler @ 000001f6496d2880] No accelerated colorspace conversion found from yuv420p to bgr48le.
[swscaler @ 000001f6497b6a80] No accelerated colorspace conversion found from yuv420p to bgr48le.
[swscaler @ 000001f6498312c0] No accelerated colorspace conversion found from yuv420p to bgr48le.
[swscaler @ 000001f6498a1040] No accelerated colorspace conversion found from yuv420p to bgr48le.
[swscaler @ 000001f649900040] No accelerated colorspace conversion found from yuv420p to bgr48le.
[swscaler @ 000001f649964040] No accelerated colorspace conversion found from yuv420p to bgr48le.
[swscaler @ 000001f6499e7040] No accelerated colorspace conversion found from yuv420p to bgr48le.
[swscaler @ 000001f649a54040] No accelerated colorspace conversion found from yuv420p to bgr48le.
[swscaler @ 000001f649ac0040] No accelerated colorspace conversion found from yuv420p to bgr48le.
[swscaler @ 000001f649b1d040] No accelerated colorspace conversion found from yuv420p to bgr48le.
[swscaler @ 000001f649bac840] No accelerated colorspace conversion found from yuv420p to bgr48le.
[swscaler @ 000001f649c17040] No accelerated colorspace conversion found from yuv420p to bgr48le.
[swscaler @ 000001f649c8b840] No accelerated colorspace conversion found from yuv420p to bgr48le.
Output #0, null, to 'pipe:':
  Metadata:
    encoder         : Lavf61.7.100
  Stream #0:0: Video: wrapped_avframe, yuv420p10le(tv, bt709, progressive), 1280x720 [SAR 1:1 DAR 16:9], q=2-31, 200 kb/s, 23.98 fps, 23.98 tbn
      Metadata:
        encoder         : Lavc61.19.100 wrapped_avframe
  Stream #0:1(rus): Audio: pcm_s16le, 48000 Hz, stereo, s16, 1536 kb/s (default) (forced)
      Metadata:
        title           : AniLibria.TV
        _STATISTICS_TAGS: BPS DURATION NUMBER_OF_FRAMES NUMBER_OF_BYTES
        BPS             : 194723
        DURATION        : 00:23:40.032000000
        NUMBER_OF_FRAMES: 66565
        NUMBER_OF_BYTES : 34564140
        _STATISTICS_WRITING_APP: mkvpropedit v66.0.0 ('Josie') 64-bit
        _STATISTICS_WRITING_DATE_UTC: 2025-06-17 14:46:22
        encoder         : Lavc61.19.100 pcm_s16le
frame=   86 fps=0.0 q=-0.0 size=N/A time=00:00:03.58 bitrate=N/A speed=6.92x    frame=  177 fps=172 q=-0.0 size=N/A time=00:00:07.38 bitrate=N/A speed=7.18x    frame=  275 fps=179 q=-0.0 size=N/A time=00:00:11.46 bitrate=N/A speed=7.45x    frame=  372 fps=181 q=-0.0 size=N/A time=00:00:15.51 bitrate=N/A speed=7.53x    frame=  456 fps=177 q=-0.0 size=N/A time=00:00:19.01 bitrate=N/A speed= 7.4x    frame=  563 fps=182 q=-0.0 size=N/A time=00:00:23.48 bitrate=N/A speed= 7.6x    frame=  658 fps=183 q=-0.0 size=N/A time=00:00:27.44 bitrate=N/A speed=7.62x    frame=  751 fps=182 q=-0.0 size=N/A time=00:00:31.32 bitrate=N/A speed=7.59x    frame=  839 fps=181 q=-0.0 size=N/A time=00:00:34.99 bitrate=N/A speed=7.55x    frame=  948 fps=184 q=-0.0 size=N/A time=00:00:39.53 bitrate=N/A speed=7.67x    frame= 1041 fps=184 q=-0.0 size=N/A time=00:00:43.41 bitrate=N/A speed=7.67x    frame= 1141 fps=184 q=-0.0 size=N/A time=00:00:47.58 bitrate=N/A speed=7.69x    frame= 1231 fps=184 q=-0.0 size=N/A time=00:00:51.34 bitrate=N/A speed=7.67x    frame= 1327 fps=184 q=-0.0 size=N/A time=00:00:55.34 bitrate=N/A speed=7.67x    frame= 1419 fps=184 q=-0.0 size=N/A time=00:00:59.18 bitrate=N/A speed=7.66x    frame= 1508 fps=183 q=-0.0 size=N/A time=00:01:02.89 bitrate=N/A speed=7.63x    frame= 1600 fps=183 q=-0.0 size=N/A time=00:01:06.73 bitrate=N/A speed=7.62x    frame= 1693 fps=183 q=-0.0 size=N/A time=00:01:10.61 bitrate=N/A speed=7.61x    frame= 1786 fps=183 q=-0.0 size=N/A time=00:01:14.49 bitrate=N/A speed=7.61x    frame= 1874 fps=182 q=-0.0 size=N/A time=00:01:18.16 bitrate=N/A speed=7.58x    frame= 1964 fps=181 q=-0.0 size=N/A time=00:01:21.91 bitrate=N/A speed=7.56x    frame= 2061 fps=182 q=-0.0 size=N/A time=00:01:25.96 bitrate=N/A speed=7.58x    frame= 2155 fps=182 q=-0.0 size=N/A time=00:01:29.88 bitrate=N/A speed=7.59x    frame= 2251 fps=182 q=-0.0 size=N/A time=00:01:33.88 bitrate=N/A speed=7.59x    frame= 2343 fps=182 q=-0.0 size=N/A time=00:01:37.72 bitrate=N/A speed=7.59x    frame= 2430 fps=181 q=-0.0 size=N/A time=00:01:41.35 bitrate=N/A speed=7.57x    frame= 2535 fps=182 q=-0.0 size=N/A time=00:01:45.73 bitrate=N/A speed=7.59x    frame= 2621 fps=182 q=-0.0 size=N/A time=00:01:49.31 bitrate=N/A speed=7.57x    frame= 2713 fps=182 q=-0.0 size=N/A time=00:01:53.15 bitrate=N/A speed=7.57x    frame= 2814 fps=182 q=-0.0 size=N/A time=00:01:57.36 bitrate=N/A speed=7.59x    frame= 2901 fps=182 q=-0.0 size=N/A time=00:02:00.99 bitrate=N/A speed=7.57x    frame= 2998 fps=182 q=-0.0 size=N/A time=00:02:05.04 bitrate=N/A speed=7.58x    frame= 3095 fps=182 q=-0.0 size=N/A time=00:02:09.08 bitrate=N/A speed=7.59x    frame= 3190 fps=182 q=-0.0 size=N/A time=00:02:13.04 bitrate=N/A speed=7.59x    frame= 3282 fps=182 q=-0.0 size=N/A time=00:02:16.88 bitrate=N/A speed=7.59x    frame= 3383 fps=182 q=-0.0 size=N/A time=00:02:21.09 bitrate=N/A speed= 7.6x    frame= 3478 fps=182 q=-0.0 size=N/A time=00:02:25.06 bitrate=N/A speed=7.61x    frame= 3565 fps=182 q=-0.0 size=N/A time=00:02:28.69 bitrate=N/A speed=7.59x    frame= 3667 fps=182 q=-0.0 size=N/A time=00:02:32.94 bitrate=N/A speed=7.61x    frame= 3763 fps=183 q=-0.0 size=N/A time=00:02:36.94 bitrate=N/A speed=7.61x    frame= 3860 fps=183 q=-0.0 size=N/A time=00:02:40.99 bitrate=N/A speed=7.62x    frame= 3951 fps=183 q=-0.0 size=N/A time=00:02:44.78 bitrate=N/A speed=7.61x    frame= 4047 fps=183 q=-0.0 size=N/A time=00:02:48.79 bitrate=N/A speed=7.61x    frame= 4142 fps=183 q=-0.0 size=N/A time=00:02:52.75 bitrate=N/A speed=7.62x    frame= 4231 fps=182 q=-0.0 size=N/A time=00:02:56.46 bitrate=N/A speed=7.61x    frame= 4333 fps=183 q=-0.0 size=N/A time=00:03:00.72 bitrate=N/A speed=7.62x    frame= 4430 fps=183 q=-0.0 size=N/A time=00:03:04.76 bitrate=N/A speed=7.62x    frame= 4510 fps=182 q=-0.0 size=N/A time=00:03:08.10 bitrate=N/A speed= 7.6x    frame= 4608 fps=182 q=-0.0 size=N/A time=00:03:12.19 bitrate=N/A speed=7.61x    frame= 4712 fps=183 q=-0.0 size=N/A time=00:03:16.52 bitrate=N/A speed=7.62x    frame= 4807 fps=183 q=-0.0 size=N/A time=00:03:20.49 bitrate=N/A speed=7.63x    frame= 4902 fps=183 q=-0.0 size=N/A time=00:03:24.45 bitrate=N/A speed=7.63x    frame= 4988 fps=183 q=-0.0 size=N/A time=00:03:28.04 bitrate=N/A speed=7.61x    frame= 5090 fps=183 q=-0.0 size=N/A time=00:03:32.29 bitrate=N/A speed=7.63x    frame= 5193 fps=183 q=-0.0 size=N/A time=00:03:36.59 bitrate=N/A speed=7.64x    frame= 5293 fps=183 q=-0.0 size=N/A time=00:03:40.76 bitrate=N/A speed=7.65x    frame= 5383 fps=183 q=-0.0 size=N/A time=00:03:44.51 bitrate=N/A speed=7.64x    frame= 5487 fps=183 q=-0.0 size=N/A time=00:03:48.85 bitrate=N/A speed=7.65x    frame= 5583 fps=183 q=-0.0 size=N/A time=00:03:52.85 bitrate=N/A speed=7.65x    frame= 5677 fps=183 q=-0.0 size=N/A time=00:03:56.77 bitrate=N/A speed=7.65x    frame= 5775 fps=184 q=-0.0 size=N/A time=00:04:00.86 bitrate=N/A speed=7.65x    frame= 5875 fps=184 q=-0.0 size=N/A time=00:04:05.03 bitrate=N/A speed=7.66x    frame= 5976 fps=184 q=-0.0 size=N/A time=00:04:09.24 bitrate=N/A speed=7.67x    frame= 6072 fps=184 q=-0.0 size=N/A time=00:04:13.25 bitrate=N/A speed=7.67x    frame= 6168 fps=184 q=-0.0 size=N/A time=00:04:17.25 bitrate=N/A speed=7.67x    frame= 6266 fps=184 q=-0.0 size=N/A time=00:04:21.34 bitrate=N/A speed=7.67x    frame= 6360 fps=184 q=-0.0 size=N/A time=00:04:25.26 bitrate=N/A speed=7.67x    frame= 6448 fps=184 q=-0.0 size=N/A time=00:04:28.93 bitrate=N/A speed=7.67x    frame= 6548 fps=184 q=-0.0 size=N/A time=00:04:33.10 bitrate=N/A speed=7.67x    frame= 6641 fps=184 q=-0.0 size=N/A time=00:04:36.98 bitrate=N/A speed=7.67x    frame= 6725 fps=184 q=-0.0 size=N/A time=00:04:40.48 bitrate=N/A speed=7.66x    frame= 6839 fps=184 q=-0.0 size=N/A time=00:04:45.24 bitrate=N/A speed=7.68x    frame= 6936 fps=184 q=-0.0 size=N/A time=00:04:49.28 bitrate=N/A speed=7.68x    frame= 7018 fps=184 q=-0.0 size=N/A time=00:04:52.70 bitrate=N/A speed=7.67x    frame= 7134 fps=184 q=-0.0 size=N/A time=00:04:57.54 bitrate=N/A speed=7.69x    frame= 7224 fps=184 q=-0.0 size=N/A time=00:05:01.30 bitrate=N/A speed=7.68x    frame= 7331 fps=185 q=-0.0 size=N/A time=00:05:05.76 bitrate=N/A speed= 7.7x    frame= 7429 fps=185 q=-0.0 size=N/A time=00:05:09.85 bitrate=N/A speed= 7.7x    frame= 7528 fps=185 q=-0.0 size=N/A time=00:05:13.98 bitrate=N/A speed= 7.7x    frame= 7626 fps=185 q=-0.0 size=N/A time=00:05:18.06 bitrate=N/A speed=7.71x    frame= 7716 fps=185 q=-0.0 size=N/A time=00:05:21.82 bitrate=N/A speed= 7.7x    frame= 7822 fps=185 q=-0.0 size=N/A time=00:05:26.24 bitrate=N/A speed=7.71x    frame= 7920 fps=185 q=-0.0 size=N/A time=00:05:30.33 bitrate=N/A speed=7.71x    frame= 8015 fps=185 q=-0.0 size=N/A time=00:05:34.29 bitrate=N/A speed=7.71x    frame= 8112 fps=185 q=-0.0 size=N/A time=00:05:38.33 bitrate=N/A speed=7.71x    frame= 8196 fps=185 q=-0.0 size=N/A time=00:05:41.84 bitrate=N/A speed= 7.7x    frame= 8303 fps=185 q=-0.0 size=N/A time=00:05:46.30 bitrate=N/A speed=7.71x    frame= 8400 fps=185 q=-0.0 size=N/A time=00:05:50.35 bitrate=N/A speed=7.72x    frame= 8494 fps=185 q=-0.0 size=N/A time=00:05:54.27 bitrate=N/A speed=7.72x    frame= 8581 fps=185 q=-0.0 size=N/A time=00:05:57.89 bitrate=N/A speed=7.71x    frame= 8684 fps=185 q=-0.0 size=N/A time=00:06:02.19 bitrate=N/A speed=7.71x    frame= 8780 fps=185 q=-0.0 size=N/A time=00:06:06.19 bitrate=N/A speed=7.72x    frame= 8879 fps=185 q=-0.0 size=N/A time=00:06:10.32 bitrate=N/A speed=7.72x    frame= 8973 fps=185 q=-0.0 size=N/A time=00:06:14.24 bitrate=N/A speed=7.72x    frame= 9068 fps=185 q=-0.0 size=N/A time=00:06:18.21 bitrate=N/A speed=7.72x    frame= 9160 fps=185 q=-0.0 size=N/A time=00:06:22.04 bitrate=N/A speed=7.71x    frame= 9252 fps=185 q=-0.0 size=N/A time=00:06:25.88 bitrate=N/A speed=7.71x    frame= 9360 fps=185 q=-0.0 size=N/A time=00:06:30.39 bitrate=N/A speed=7.72x    frame= 9455 fps=185 q=-0.0 size=N/A time=00:06:34.35 bitrate=N/A speed=7.72x    frame= 9552 fps=185 q=-0.0 size=N/A time=00:06:38.39 bitrate=N/A speed=7.72x    frame= 9651 fps=185 q=-0.0 size=N/A time=00:06:42.52 bitrate=N/A speed=7.72x    frame= 9749 fps=185 q=-0.0 size=N/A time=00:06:46.61 bitrate=N/A speed=7.73x    frame= 9831 fps=185 q=-0.0 size=N/A time=00:06:50.03 bitrate=N/A speed=7.72x    frame= 9942 fps=185 q=-0.0 size=N/A time=00:06:54.66 bitrate=N/A speed=7.73x    frame=10037 fps=185 q=-0.0 size=N/A time=00:06:58.62 bitrate=N/A speed=7.73x    frame=10125 fps=185 q=-0.0 size=N/A time=00:07:02.29 bitrate=N/A speed=7.72x    frame=10230 fps=185 q=-0.0 size=N/A time=00:07:06.67 bitrate=N/A speed=7.73x    frame=10326 fps=185 q=-0.0 size=N/A time=00:07:10.68 bitrate=N/A speed=7.73x    frame=10422 fps=185 q=-0.0 size=N/A time=00:07:14.68 bitrate=N/A speed=7.73x    frame=10512 fps=185 q=-0.0 size=N/A time=00:07:18.43 bitrate=N/A speed=7.73x    frame=10607 fps=185 q=-0.0 size=N/A time=00:07:22.40 bitrate=N/A speed=7.73x    frame=10705 fps=185 q=-0.0 size=N/A time=00:07:26.48 bitrate=N/A speed=7.73x    frame=10799 fps=185 q=-0.0 size=N/A time=00:07:30.40 bitrate=N/A speed=7.73x    frame=10887 fps=185 q=-0.0 size=N/A time=00:07:34.07 bitrate=N/A speed=7.72x    frame=10991 fps=185 q=-0.0 size=N/A time=00:07:38.41 bitrate=N/A speed=7.73x    frame=11086 fps=185 q=-0.0 size=N/A time=00:07:42.37 bitrate=N/A speed=7.73x    frame=11175 fps=185 q=-0.0 size=N/A time=00:07:46.09 bitrate=N/A speed=7.72x    frame=11275 fps=185 q=-0.0 size=N/A time=00:07:50.26 bitrate=N/A speed=7.72x    frame=11371 fps=185 q=-0.0 size=N/A time=00:07:54.26 bitrate=N/A speed=7.73x    frame=11467 fps=185 q=-0.0 size=N/A time=00:07:58.26 bitrate=N/A speed=7.73x    frame=11553 fps=185 q=-0.0 size=N/A time=00:08:01.85 bitrate=N/A speed=7.72x    frame=11660 fps=185 q=-0.0 size=N/A time=00:08:06.31 bitrate=N/A speed=7.73x    frame=11755 fps=185 q=-0.0 size=N/A time=00:08:10.28 bitrate=N/A speed=7.73x    frame=11852 fps=185 q=-0.0 size=N/A time=00:08:14.32 bitrate=N/A speed=7.73x    frame=11949 fps=185 q=-0.0 size=N/A time=00:08:18.37 bitrate=N/A speed=7.73x    frame=12046 fps=185 q=-0.0 size=N/A time=00:08:22.41 bitrate=N/A speed=7.73x    frame=12146 fps=185 q=-0.0 size=N/A time=00:08:26.58 bitrate=N/A speed=7.73x    frame=12236 fps=185 q=-0.0 size=N/A time=00:08:30.34 bitrate=N/A speed=7.73x    frame=12334 fps=185 q=-0.0 size=N/A time=00:08:34.43 bitrate=N/A speed=7.73x    frame=12436 fps=185 q=-0.0 size=N/A time=00:08:38.68 bitrate=N/A speed=7.73x    frame=12531 fps=185 q=-0.0 size=N/A time=00:08:42.64 bitrate=N/A speed=7.74x    frame=12626 fps=185 q=-0.0 size=N/A time=00:08:46.60 bitrate=N/A speed=7.73x    frame=12720 fps=185 q=-0.0 size=N/A time=00:08:50.53 bitrate=N/A speed=7.73x    frame=12818 fps=185 q=-0.0 size=N/A time=00:08:54.61 bitrate=N/A speed=7.74x    frame=12916 fps=185 q=-0.0 size=N/A time=00:08:58.70 bitrate=N/A speed=7.74x    frame=13008 fps=185 q=-0.0 size=N/A time=00:09:02.54 bitrate=N/A speed=7.73x    frame=13101 fps=185 q=-0.0 size=N/A time=00:09:06.42 bitrate=N/A speed=7.73x    frame=13202 fps=185 q=-0.0 size=N/A time=00:09:10.63 bitrate=N/A speed=7.73x    frame=13296 fps=185 q=-0.0 size=N/A time=00:09:14.55 bitrate=N/A speed=7.73x    frame=13392 fps=185 q=-0.0 size=N/A time=00:09:18.55 bitrate=N/A speed=7.74x    frame=13489 fps=185 q=-0.0 size=N/A time=00:09:22.60 bitrate=N/A speed=7.74x    frame=13584 fps=185 q=-0.0 size=N/A time=00:09:26.56 bitrate=N/A speed=7.74x    frame=13680 fps=185 q=-0.0 size=N/A time=00:09:30.57 bitrate=N/A speed=7.74x    frame=13778 fps=186 q=-0.0 size=N/A time=00:09:34.65 bitrate=N/A speed=7.74x    frame=13875 fps=185 q=-0.0 size=N/A time=00:09:38.70 bitrate=N/A speed=7.74x    frame=13966 fps=185 q=-0.0 size=N/A time=00:09:42.49 bitrate=N/A speed=7.73x    frame=14066 fps=186 q=-0.0 size=N/A time=00:09:46.66 bitrate=N/A speed=7.74x    frame=14150 fps=185 q=-0.0 size=N/A time=00:09:50.17 bitrate=N/A speed=7.73x    frame=14254 fps=185 q=-0.0 size=N/A time=00:09:54.51 bitrate=N/A speed=7.74x    frame=14349 fps=185 q=-0.0 size=N/A time=00:09:58.47 bitrate=N/A speed=7.74x    frame=14445 fps=185 q=-0.0 size=N/A time=00:10:02.47 bitrate=N/A speed=7.73x    frame=14540 fps=185 q=-0.0 size=N/A time=00:10:06.43 bitrate=N/A speed=7.74x    frame=14637 fps=185 q=-0.0 size=N/A time=00:10:10.48 bitrate=N/A speed=7.74x    frame=14733 fps=185 q=-0.0 size=N/A time=00:10:14.48 bitrate=N/A speed=7.74x    frame=14828 fps=185 q=-0.0 size=N/A time=00:10:18.45 bitrate=N/A speed=7.74x    frame=14927 fps=185 q=-0.0 size=N/A time=00:10:22.58 bitrate=N/A speed=7.74x    frame=15024 fps=186 q=-0.0 size=N/A time=00:10:26.62 bitrate=N/A speed=7.74x    frame=15113 fps=185 q=-0.0 size=N/A time=00:10:30.33 bitrate=N/A speed=7.73x    frame=15204 fps=185 q=-0.0 size=N/A time=00:10:34.13 bitrate=N/A speed=7.73x    frame=15311 fps=186 q=-0.0 size=N/A time=00:10:38.59 bitrate=N/A speed=7.74x    frame=15403 fps=185 q=-0.0 size=N/A time=00:10:42.43 bitrate=N/A speed=7.73x    frame=15503 fps=186 q=-0.0 size=N/A time=00:10:46.60 bitrate=N/A speed=7.74x    frame=15604 fps=186 q=-0.0 size=N/A time=00:10:50.81 bitrate=N/A speed=7.74x    frame=15701 fps=186 q=-0.0 size=N/A time=00:10:54.86 bitrate=N/A speed=7.74x    frame=15794 fps=186 q=-0.0 size=N/A time=00:10:58.74 bitrate=N/A speed=7.74x    frame=15880 fps=185 q=-0.0 size=N/A time=00:11:02.32 bitrate=N/A speed=7.73x    frame=15984 fps=186 q=-0.0 size=N/A time=00:11:06.66 bitrate=N/A speed=7.74x    frame=16081 fps=186 q=-0.0 size=N/A time=00:11:10.71 bitrate=N/A speed=7.74x    frame=16178 fps=186 q=-0.0 size=N/A time=00:11:14.75 bitrate=N/A speed=7.74x    frame=16277 fps=186 q=-0.0 size=N/A time=00:11:18.88 bitrate=N/A speed=7.74x    frame=16367 fps=186 q=-0.0 size=N/A time=00:11:22.64 bitrate=N/A speed=7.74x    frame=16463 fps=186 q=-0.0 size=N/A time=00:11:26.64 bitrate=N/A speed=7.74x    frame=16568 fps=186 q=-0.0 size=N/A time=00:11:31.02 bitrate=N/A speed=7.74x    frame=16666 fps=186 q=-0.0 size=N/A time=00:11:35.11 bitrate=N/A speed=7.74x    frame=16764 fps=186 q=-0.0 size=N/A time=00:11:39.19 bitrate=N/A speed=7.74x    frame=16851 fps=186 q=-0.0 size=N/A time=00:11:42.82 bitrate=N/A speed=7.74x    frame=16946 fps=186 q=-0.0 size=N/A time=00:11:46.78 bitrate=N/A speed=7.74x    frame=17052 fps=186 q=-0.0 size=N/A time=00:11:51.21 bitrate=N/A speed=7.75x    frame=17146 fps=186 q=-0.0 size=N/A time=00:11:55.13 bitrate=N/A speed=7.74x    frame=17243 fps=186 q=-0.0 size=N/A time=00:11:59.17 bitrate=N/A speed=7.74x    frame=17334 fps=186 q=-0.0 size=N/A time=00:12:02.97 bitrate=N/A speed=7.74x    frame=17435 fps=186 q=-0.0 size=N/A time=00:12:07.18 bitrate=N/A speed=7.74x    frame=17534 fps=186 q=-0.0 size=N/A time=00:12:11.31 bitrate=N/A speed=7.74x    frame=17626 fps=186 q=-0.0 size=N/A time=00:12:15.15 bitrate=N/A speed=7.74x    frame=17719 fps=186 q=-0.0 size=N/A time=00:12:19.02 bitrate=N/A speed=7.74x    frame=17805 fps=186 q=-0.0 size=N/A time=00:12:22.61 bitrate=N/A speed=7.74x    frame=17907 fps=186 q=-0.0 size=N/A time=00:12:26.87 bitrate=N/A speed=7.74x    frame=17988 fps=185 q=-0.0 size=N/A time=00:12:30.24 bitrate=N/A speed=7.74x    frame=18099 fps=186 q=-0.0 size=N/A time=00:12:34.87 bitrate=N/A speed=7.74x    frame=18185 fps=186 q=-0.0 size=N/A time=00:12:38.46 bitrate=N/A speed=7.74x    frame=18291 fps=186 q=-0.0 size=N/A time=00:12:42.88 bitrate=N/A speed=7.74x    frame=18386 fps=186 q=-0.0 size=N/A time=00:12:46.84 bitrate=N/A speed=7.74x    frame=18487 fps=186 q=-0.0 size=N/A time=00:12:51.06 bitrate=N/A speed=7.74x    frame=18582 fps=186 q=-0.0 size=N/A time=00:12:55.02 bitrate=N/A speed=7.74x    frame=18681 fps=186 q=-0.0 size=N/A time=00:12:59.15 bitrate=N/A speed=7.75x    frame=18774 fps=186 q=-0.0 size=N/A time=00:13:03.03 bitrate=N/A speed=7.74x    frame=18874 fps=186 q=-0.0 size=N/A time=00:13:07.20 bitrate=N/A speed=7.75x    frame=18968 fps=186 q=-0.0 size=N/A time=00:13:11.12 bitrate=N/A speed=7.75x    frame=19065 fps=186 q=-0.0 size=N/A time=00:13:15.16 bitrate=N/A speed=7.75x    frame=19164 fps=186 q=-0.0 size=N/A time=00:13:19.29 bitrate=N/A speed=7.75x    frame=19260 fps=186 q=-0.0 size=N/A time=00:13:23.30 bitrate=N/A speed=7.75x    frame=19353 fps=186 q=-0.0 size=N/A time=00:13:27.18 bitrate=N/A speed=7.75x    frame=19450 fps=186 q=-0.0 size=N/A time=00:13:31.22 bitrate=N/A speed=7.75x    frame=19546 fps=186 q=-0.0 size=N/A time=00:13:35.23 bitrate=N/A speed=7.75x    frame=19641 fps=186 q=-0.0 size=N/A time=00:13:39.19 bitrate=N/A speed=7.75x    frame=19733 fps=186 q=-0.0 size=N/A time=00:13:43.03 bitrate=N/A speed=7.74x    frame=19828 fps=186 q=-0.0 size=N/A time=00:13:46.99 bitrate=N/A speed=7.74x    frame=19923 fps=186 q=-0.0 size=N/A time=00:13:50.95 bitrate=N/A speed=7.74x    frame=20016 fps=186 q=-0.0 size=N/A time=00:13:54.83 bitrate=N/A speed=7.74x    frame=20100 fps=186 q=-0.0 size=N/A time=00:13:58.33 bitrate=N/A speed=7.74x    frame=20193 fps=186 q=-0.0 size=N/A time=00:14:02.21 bitrate=N/A speed=7.74x    frame=20299 fps=186 q=-0.0 size=N/A time=00:14:06.63 bitrate=N/A speed=7.74x    frame=20396 fps=186 q=-0.0 size=N/A time=00:14:10.68 bitrate=N/A speed=7.74x    frame=20491 fps=186 q=-0.0 size=N/A time=00:14:14.64 bitrate=N/A speed=7.74x    frame=20578 fps=186 q=-0.0 size=N/A time=00:14:18.27 bitrate=N/A speed=7.74x    frame=20678 fps=186 q=-0.0 size=N/A time=00:14:22.44 bitrate=N/A speed=7.74x    frame=20782 fps=186 q=-0.0 size=N/A time=00:14:26.78 bitrate=N/A speed=7.74x    frame=20871 fps=186 q=-0.0 size=N/A time=00:14:30.49 bitrate=N/A speed=7.74x    frame=20974 fps=186 q=-0.0 size=N/A time=00:14:34.79 bitrate=N/A speed=7.74x    frame=21068 fps=186 q=-0.0 size=N/A time=00:14:38.71 bitrate=N/A speed=7.74x    frame=21164 fps=186 q=-0.0 size=N/A time=00:14:42.71 bitrate=N/A speed=7.74x    frame=21253 fps=186 q=-0.0 size=N/A time=00:14:46.42 bitrate=N/A speed=7.74x    frame=21346 fps=186 q=-0.0 size=N/A time=00:14:50.30 bitrate=N/A speed=7.74x    frame=21449 fps=186 q=-0.0 size=N/A time=00:14:54.60 bitrate=N/A speed=7.74x    frame=21546 fps=186 q=-0.0 size=N/A time=00:14:58.64 bitrate=N/A speed=7.74x    frame=21631 fps=186 q=-0.0 size=N/A time=00:15:02.19 bitrate=N/A speed=7.74x    frame=21731 fps=186 q=-0.0 size=N/A time=00:15:06.36 bitrate=N/A speed=7.74x    frame=21817 fps=185 q=-0.0 size=N/A time=00:15:09.95 bitrate=N/A speed=7.74x    frame=21919 fps=186 q=-0.0 size=N/A time=00:15:14.20 bitrate=N/A speed=7.74x    frame=22018 fps=186 q=-0.0 size=N/A time=00:15:18.33 bitrate=N/A speed=7.74x    frame=22106 fps=185 q=-0.0 size=N/A time=00:15:22.00 bitrate=N/A speed=7.74x    frame=22204 fps=186 q=-0.0 size=N/A time=00:15:26.09 bitrate=N/A speed=7.74x    frame=22305 fps=186 q=-0.0 size=N/A time=00:15:30.30 bitrate=N/A speed=7.74x    frame=22407 fps=186 q=-0.0 size=N/A time=00:15:34.55 bitrate=N/A speed=7.74x    frame=22506 fps=186 q=-0.0 size=N/A time=00:15:38.68 bitrate=N/A speed=7.74x    frame=22601 fps=186 q=-0.0 size=N/A time=00:15:42.65 bitrate=N/A speed=7.74x    frame=22697 fps=186 q=-0.0 size=N/A time=00:15:46.65 bitrate=N/A speed=7.74x    frame=22792 fps=186 q=-0.0 size=N/A time=00:15:50.61 bitrate=N/A speed=7.74x    frame=22878 fps=186 q=-0.0 size=N/A time=00:15:54.20 bitrate=N/A speed=7.74x    frame=22985 fps=186 q=-0.0 size=N/A time=00:15:58.66 bitrate=N/A speed=7.74x    frame=23079 fps=186 q=-0.0 size=N/A time=00:16:02.58 bitrate=N/A speed=7.74x    frame=23171 fps=186 q=-0.0 size=N/A time=00:16:06.42 bitrate=N/A speed=7.74x    frame=23270 fps=186 q=-0.0 size=N/A time=00:16:10.55 bitrate=N/A speed=7.74x    frame=23364 fps=186 q=-0.0 size=N/A time=00:16:14.47 bitrate=N/A speed=7.74x    frame=23459 fps=186 q=-0.0 size=N/A time=00:16:18.43 bitrate=N/A speed=7.74x    frame=23558 fps=186 q=-0.0 size=N/A time=00:16:22.56 bitrate=N/A speed=7.74x    frame=23651 fps=186 q=-0.0 size=N/A time=00:16:26.44 bitrate=N/A speed=7.74x    frame=23747 fps=186 q=-0.0 size=N/A time=00:16:30.44 bitrate=N/A speed=7.74x    frame=23838 fps=186 q=-0.0 size=N/A time=00:16:34.24 bitrate=N/A speed=7.74x    frame=23938 fps=186 q=-0.0 size=N/A time=00:16:38.41 bitrate=N/A speed=7.74x    frame=24034 fps=186 q=-0.0 size=N/A time=00:16:42.41 bitrate=N/A speed=7.74x    frame=24130 fps=186 q=-0.0 size=N/A time=00:16:46.42 bitrate=N/A speed=7.74x    frame=24223 fps=186 q=-0.0 size=N/A time=00:16:50.30 bitrate=N/A speed=7.74x    frame=24320 fps=186 q=-0.0 size=N/A time=00:16:54.34 bitrate=N/A speed=7.74x    frame=24418 fps=186 q=-0.0 size=N/A time=00:16:58.43 bitrate=N/A speed=7.74x    frame=24516 fps=186 q=-0.0 size=N/A time=00:17:02.52 bitrate=N/A speed=7.74x    frame=24615 fps=186 q=-0.0 size=N/A time=00:17:06.65 bitrate=N/A speed=7.74x    frame=24711 fps=186 q=-0.0 size=N/A time=00:17:10.65 bitrate=N/A speed=7.74x    frame=24801 fps=186 q=-0.0 size=N/A time=00:17:14.40 bitrate=N/A speed=7.74x    frame=24905 fps=186 q=-0.0 size=N/A time=00:17:18.74 bitrate=N/A speed=7.74x    frame=25004 fps=186 q=-0.0 size=N/A time=00:17:22.87 bitrate=N/A speed=7.75x    frame=25097 fps=186 q=-0.0 size=N/A time=00:17:26.75 bitrate=N/A speed=7.74x    frame=25190 fps=186 q=-0.0 size=N/A time=00:17:30.63 bitrate=N/A speed=7.74x    frame=25288 fps=186 q=-0.0 size=N/A time=00:17:34.72 bitrate=N/A speed=7.74x    frame=25377 fps=186 q=-0.0 size=N/A time=00:17:38.43 bitrate=N/A speed=7.74x    frame=25465 fps=186 q=-0.0 size=N/A time=00:17:42.10 bitrate=N/A speed=7.74x    frame=25564 fps=186 q=-0.0 size=N/A time=00:17:46.23 bitrate=N/A speed=7.74x    frame=25659 fps=186 q=-0.0 size=N/A time=00:17:50.19 bitrate=N/A speed=7.74x    frame=25757 fps=186 q=-0.0 size=N/A time=00:17:54.28 bitrate=N/A speed=7.74x    frame=25841 fps=186 q=-0.0 size=N/A time=00:17:57.78 bitrate=N/A speed=7.74x    frame=25947 fps=186 q=-0.0 size=N/A time=00:18:02.20 bitrate=N/A speed=7.74x    frame=26048 fps=186 q=-0.0 size=N/A time=00:18:06.41 bitrate=N/A speed=7.74x    frame=26131 fps=186 q=-0.0 size=N/A time=00:18:09.88 bitrate=N/A speed=7.74x    frame=26235 fps=186 q=-0.0 size=N/A time=00:18:14.21 bitrate=N/A speed=7.74x    frame=26333 fps=186 q=-0.0 size=N/A time=00:18:18.30 bitrate=N/A speed=7.74x    frame=26431 fps=186 q=-0.0 size=N/A time=00:18:22.39 bitrate=N/A speed=7.74x    frame=26515 fps=186 q=-0.0 size=N/A time=00:18:25.89 bitrate=N/A speed=7.74x    frame=26621 fps=186 q=-0.0 size=N/A time=00:18:30.31 bitrate=N/A speed=7.74x    frame=26717 fps=186 q=-0.0 size=N/A time=00:18:34.32 bitrate=N/A speed=7.74x    frame=26808 fps=186 q=-0.0 size=N/A time=00:18:38.11 bitrate=N/A speed=7.74x    frame=26902 fps=186 q=-0.0 size=N/A time=00:18:42.03 bitrate=N/A speed=7.74x    frame=27005 fps=186 q=-0.0 size=N/A time=00:18:46.33 bitrate=N/A speed=7.74x    frame=27096 fps=186 q=-0.0 size=N/A time=00:18:50.12 bitrate=N/A speed=7.74x    frame=27197 fps=186 q=-0.0 size=N/A time=00:18:54.34 bitrate=N/A speed=7.74x    frame=27292 fps=186 q=-0.0 size=N/A time=00:18:58.30 bitrate=N/A speed=7.74x    frame=27386 fps=186 q=-0.0 size=N/A time=00:19:02.22 bitrate=N/A speed=7.74x    frame=27485 fps=186 q=-0.0 size=N/A time=00:19:06.35 bitrate=N/A speed=7.74x    frame=27573 fps=186 q=-0.0 size=N/A time=00:19:10.02 bitrate=N/A speed=7.74x    frame=27673 fps=186 q=-0.0 size=N/A time=00:19:14.19 bitrate=N/A speed=7.74x    frame=27771 fps=186 q=-0.0 size=N/A time=00:19:18.28 bitrate=N/A speed=7.74x    frame=27867 fps=186 q=-0.0 size=N/A time=00:19:22.28 bitrate=N/A speed=7.74x    frame=27966 fps=186 q=-0.0 size=N/A time=00:19:26.41 bitrate=N/A speed=7.74x    frame=28064 fps=186 q=-0.0 size=N/A time=00:19:30.50 bitrate=N/A speed=7.74x    frame=28160 fps=186 q=-0.0 size=N/A time=00:19:34.50 bitrate=N/A speed=7.74x    frame=28250 fps=186 q=-0.0 size=N/A time=00:19:38.26 bitrate=N/A speed=7.74x    frame=28349 fps=186 q=-0.0 size=N/A time=00:19:42.38 bitrate=N/A speed=7.74x    frame=28442 fps=186 q=-0.0 size=N/A time=00:19:46.26 bitrate=N/A speed=7.74x    frame=28524 fps=186 q=-0.0 size=N/A time=00:19:49.68 bitrate=N/A speed=7.74x    frame=28630 fps=186 q=-0.0 size=N/A time=00:19:54.10 bitrate=N/A speed=7.74x    frame=28726 fps=186 q=-0.0 size=N/A time=00:19:58.11 bitrate=N/A speed=7.74x    frame=28821 fps=186 q=-0.0 size=N/A time=00:20:02.07 bitrate=N/A speed=7.74x    frame=28918 fps=186 q=-0.0 size=N/A time=00:20:06.12 bitrate=N/A speed=7.74x    frame=29006 fps=186 q=-0.0 size=N/A time=00:20:09.79 bitrate=N/A speed=7.74x    frame=29103 fps=186 q=-0.0 size=N/A time=00:20:13.83 bitrate=N/A speed=7.74x    frame=29206 fps=186 q=-0.0 size=N/A time=00:20:18.13 bitrate=N/A speed=7.74x    frame=29294 fps=186 q=-0.0 size=N/A time=00:20:21.80 bitrate=N/A speed=7.74x    frame=29387 fps=186 q=-0.0 size=N/A time=00:20:25.68 bitrate=N/A speed=7.74x    frame=29493 fps=186 q=-0.0 size=N/A time=00:20:30.10 bitrate=N/A speed=7.74x    frame=29590 fps=186 q=-0.0 size=N/A time=00:20:34.14 bitrate=N/A speed=7.74x    frame=29683 fps=186 q=-0.0 size=N/A time=00:20:38.02 bitrate=N/A speed=7.74x    frame=29785 fps=186 q=-0.0 size=N/A time=00:20:42.28 bitrate=N/A speed=7.74x    frame=29871 fps=186 q=-0.0 size=N/A time=00:20:45.86 bitrate=N/A speed=7.74x    frame=29968 fps=186 q=-0.0 size=N/A time=00:20:49.91 bitrate=N/A speed=7.74x    frame=30074 fps=186 q=-0.0 size=N/A time=00:20:54.33 bitrate=N/A speed=7.74x    frame=30169 fps=186 q=-0.0 size=N/A time=00:20:58.29 bitrate=N/A speed=7.74x    frame=30255 fps=186 q=-0.0 size=N/A time=00:21:01.88 bitrate=N/A speed=7.74x    frame=30357 fps=186 q=-0.0 size=N/A time=00:21:06.13 bitrate=N/A speed=7.74x    frame=30454 fps=186 q=-0.0 size=N/A time=00:21:10.18 bitrate=N/A speed=7.74x    frame=30546 fps=186 q=-0.0 size=N/A time=00:21:14.02 bitrate=N/A speed=7.74x    frame=30633 fps=186 q=-0.0 size=N/A time=00:21:17.65 bitrate=N/A speed=7.74x    frame=30738 fps=186 q=-0.0 size=N/A time=00:21:22.03 bitrate=N/A speed=7.74x    frame=30836 fps=186 q=-0.0 size=N/A time=00:21:26.11 bitrate=N/A speed=7.74x    frame=30933 fps=186 q=-0.0 size=N/A time=00:21:30.16 bitrate=N/A speed=7.74x    frame=31027 fps=186 q=-0.0 size=N/A time=00:21:34.08 bitrate=N/A speed=7.74x    frame=31118 fps=186 q=-0.0 size=N/A time=00:21:37.87 bitrate=N/A speed=7.74x    frame=31218 fps=186 q=-0.0 size=N/A time=00:21:42.05 bitrate=N/A speed=7.74x    frame=31315 fps=186 q=-0.0 size=N/A time=00:21:46.09 bitrate=N/A speed=7.74x    frame=31413 fps=186 q=-0.0 size=N/A time=00:21:50.18 bitrate=N/A speed=7.74x    frame=31501 fps=186 q=-0.0 size=N/A time=00:21:53.85 bitrate=N/A speed=7.74x    frame=31603 fps=186 q=-0.0 size=N/A time=00:21:58.10 bitrate=N/A speed=7.74x    frame=31699 fps=186 q=-0.0 size=N/A time=00:22:02.11 bitrate=N/A speed=7.74x    frame=31792 fps=186 q=-0.0 size=N/A time=00:22:05.99 bitrate=N/A speed=7.74x    frame=31894 fps=186 q=-0.0 size=N/A time=00:22:10.24 bitrate=N/A speed=7.74x    frame=31988 fps=186 q=-0.0 size=N/A time=00:22:14.16 bitrate=N/A speed=7.74x    frame=32083 fps=186 q=-0.0 size=N/A time=00:22:18.12 bitrate=N/A speed=7.74x    frame=32180 fps=186 q=-0.0 size=N/A time=00:22:22.17 bitrate=N/A speed=7.74x    frame=32275 fps=186 q=-0.0 size=N/A time=00:22:26.13 bitrate=N/A speed=7.74x    frame=32369 fps=186 q=-0.0 size=N/A time=00:22:30.05 bitrate=N/A speed=7.74x    frame=32454 fps=186 q=-0.0 size=N/A time=00:22:33.60 bitrate=N/A speed=7.74x    frame=32557 fps=186 q=-0.0 size=N/A time=00:22:37.89 bitrate=N/A speed=7.74x    frame=32652 fps=186 q=-0.0 size=N/A time=00:22:41.86 bitrate=N/A speed=7.74x    frame=32748 fps=186 q=-0.0 size=N/A time=00:22:45.86 bitrate=N/A speed=7.74x    frame=32844 fps=186 q=-0.0 size=N/A time=00:22:49.86 bitrate=N/A speed=7.74x    frame=32938 fps=186 q=-0.0 size=N/A time=00:22:53.78 bitrate=N/A speed=7.74x    frame=33037 fps=186 q=-0.0 size=N/A time=00:22:57.91 bitrate=N/A speed=7.74x    frame=33130 fps=186 q=-0.0 size=N/A time=00:23:01.79 bitrate=N/A speed=7.74x    frame=33230 fps=186 q=-0.0 size=N/A time=00:23:05.96 bitrate=N/A speed=7.74x    frame=33325 fps=186 q=-0.0 size=N/A time=00:23:09.93 bitrate=N/A speed=7.74x    frame=33424 fps=186 q=-0.0 size=N/A time=00:23:14.05 bitrate=N/A speed=7.74x    frame=33520 fps=186 q=-0.0 size=N/A time=00:23:18.06 bitrate=N/A speed=7.74x    frame=33617 fps=186 q=-0.0 size=N/A time=00:23:22.10 bitrate=N/A speed=7.74x    frame=33717 fps=186 q=-0.0 size=N/A time=00:23:26.27 bitrate=N/A speed=7.74x    frame=33816 fps=186 q=-0.0 size=N/A time=00:23:30.40 bitrate=N/A speed=7.74x    frame=33913 fps=186 q=-0.0 size=N/A time=00:23:34.45 bitrate=N/A speed=7.75x    frame=34013 fps=186 q=-0.0 size=N/A time=00:23:38.62 bitrate=N/A speed=7.75x    [Parsed_ssim_10 @ 000001f648a44000] SSIM Y:0.992728 (21.383191) U:0.994838 (22.871980) V:0.994728 (22.779972) All:0.993413 (21.812909)
[out#0/null @ 000001f63cb99080] video:14629KiB audio:266260KiB subtitle:0KiB other streams:0KiB global headers:0KiB muxing overhead: unknown
frame=34046 fps=186 q=-0.0 Lsize=N/A time=00:23:40.00 bitrate=N/A speed=7.75x    
